<svg width="121" height="121" viewBox="0 0 121 121" fill="none" xmlns="http://www.w3.org/2000/svg">
<g clip-path="url(#clip0_2087_123)">
<path d="M39.3264 66.462L-1.06592 43.1415L39.8449 -27.7181L39.3264 66.462Z" fill="#ED79B5"/>
<path d="M55.1843 83.6525L14.792 106.973L-26.1188 36.1134L55.1843 83.6525Z" fill="#757FDB"/>
<path d="M78.0903 78.3568L78.0903 124.998L-3.73124 124.998L78.0903 78.3568Z" fill="#1E83F7"/>
<path d="M84.6202 56.5022L125.012 79.8227L84.1017 150.682L84.6202 56.5022Z" fill="#18C249"/>
<path d="M68.762 39.3117L109.154 15.9911L150.065 86.8507L68.762 39.3117Z" fill="#FFB400"/>
<path d="M46.3745 45.5749V-1.0661H128.196L46.3745 45.5749Z" fill="#FA2921"/>
</g>
<defs>
<clipPath id="clip0_2087_123">
<path d="M0 60.5C0 27.0868 27.0868 0 60.5 0V0C93.9132 0 121 27.0868 121 60.5V60.5C121 93.9132 93.9132 121 60.5 121V121C27.0868 121 0 93.9132 0 60.5V60.5Z" fill="white"/>
</clipPath>
</defs>
</svg>
